# xmcd
#
# Track frame offsets: 
#        150
#        16290
#        34493
#        55913
#        74570
#        93828
#        109016
#        134008
#        150944
#        174374
#        187076
#        207536
#        227684
#        260829
#        273165
#        287418
#        302084
#        329906
#
# Disc length: 4781 seconds
#
# Revision: 0
# Processed by: cddbd v1.5.2PL0 Copyright (c) Steve Scherf et al.
# Submitted via: ExactAudioCopy v1.1
#
DISCID=0e12ab12
DTITLE=Various Artist - Akella Presents - vol.65 - Women's Blues  CD2
DYEAR=2016
DGENRE=Blues
TTITLE0=B.J. Sharp - Tied Up, Tied Down
TTITLE1=Debbie Davies - Love Spin
TTITLE2=Carolyn Fe - Bad Taboo
TTITLE3=Lauren Housley - It Ain't About You
TTITLE4=Bonnie Bramlett - Cry Me A River
TTITLE5=Lara and Bluz Dawgz - Don't Mess With My Baby
TTITLE6=Lauren Anderson - Stop
TTITLE7=Barbara Blue - Rollin' Up On Me
TTITLE8=Dana Gillespie - Ten Ton Blocks
TTITLE9=Liz Mandville - Bad Man Blues
TTITLE10=Christine Lakeland - Dream Or Cry
TTITLE11=Amanda Fish Band - Player Blues
TTITLE12=Demetria Taylor - Cherry Red Wine
TTITLE13=Fiona Boyes - Tiny Pinch Of Sin
TTITLE14=Tineke Schoemaker - I Love The Way I Live
TTITLE15=Kaz Hawkins - Can't Afford Me
TTITLE16=Erja Lyytinen - Got To Move
TTITLE17=Cathy Jean - Suffer
EXTD=
EXTT0=
EXTT1=
EXTT2=
EXTT3=
EXTT4=
EXTT5=
EXTT6=
EXTT7=
EXTT8=
EXTT9=
EXTT10=
EXTT11=
EXTT12=
EXTT13=
EXTT14=
EXTT15=
EXTT16=
EXTT17=
PLAYORDER=
